<svg width="46" height="46" viewBox="0 0 46 46" fill="none" xmlns="http://www.w3.org/2000/svg">
<path d="M23 2.875C18.8078 2.87995 14.7887 4.54749 11.8243 7.51184C8.85997 10.4762 7.19243 14.4953 7.18749 18.6875C7.18247 22.1134 8.30152 25.4463 10.373 28.175C10.373 28.175 10.8042 28.7428 10.8747 28.8248L23 43.125L35.131 28.8176C35.1943 28.7414 35.627 28.175 35.627 28.175L35.6284 28.1707C37.6989 25.4432 38.8174 22.1118 38.8125 18.6875C38.8075 14.4953 37.14 10.4762 34.1756 7.51184C31.2113 4.54749 27.1922 2.87995 23 2.875V2.875ZM23 24.4375C21.8627 24.4375 20.751 24.1003 19.8055 23.4684C18.8599 22.8366 18.1229 21.9386 17.6877 20.8879C17.2525 19.8373 17.1386 18.6811 17.3605 17.5657C17.5823 16.4503 18.13 15.4258 18.9341 14.6216C19.7383 13.8175 20.7628 13.2698 21.8782 13.048C22.9936 12.8261 24.1497 12.94 25.2004 13.3752C26.2511 13.8104 27.1491 14.5474 27.7809 15.493C28.4128 16.4386 28.75 17.5503 28.75 18.6875C28.7481 20.2119 28.1417 21.6733 27.0637 22.7513C25.9858 23.8292 24.5244 24.4356 23 24.4375V24.4375Z" fill="#1A1A1A"/>
</svg>
